HIERARCHY
ROOT Hips
{
	OFFSET 0.000000 71.427986 0.000000
	CHANNELS 6 Xposition Yposition Zposition Xrotation Yrotation Zrotation
	JOINT Pelvis
	{
		OFFSET 0.000000 0.000000 0.000000
		CHANNELS 3 Xrotation Yrotation Zrotation
		JOINT LeftUpLeg
		{
			OFFSET 6.797100 -2.508499 -1.318700
			CHANNELS 3 Xrotation Yrotation Zrotation
			JOINT LeftLeg
			{
				OFFSET 0.069008 -29.241863 0.690200
				CHANNELS 3 Xrotation Yrotation Zrotation
				JOINT LeftFoot
				{
					OFFSET -0.069008 -29.568123 -0.266800
					CHANNELS 3 Xrotation Yrotation Zrotation
					JOINT LeftToeBase
					{
						OFFSET 3.145500 -8.631000 16.059900
						CHANNELS 3 Xrotation Yrotation Zrotation
						End Site
						{
							OFFSET 0.000000 18.501587 0.000000
						}
					}
				}
			}
			JOINT Left_ShortSleeve
			{
				OFFSET 0.265923 -10.480953 1.153800
				CHANNELS 3 Xrotation Yrotation Zrotation
				End Site
				{
					OFFSET 1.725763 19.823879 0.000000
				}
			}
		}
		JOINT RightUpLeg
		{
			OFFSET -6.797100 -2.508499 -1.318700
			CHANNELS 3 Xrotation Yrotation Zrotation
			JOINT RightLeg
			{
				OFFSET -0.082453 -29.241932 0.688000
				CHANNELS 3 Xrotation Yrotation Zrotation
				JOINT RightFoot
				{
					OFFSET 0.082453 -29.568058 -0.264600
					CHANNELS 3 Xrotation Yrotation Zrotation
					JOINT RightToeBase
					{
						OFFSET -3.115300 -8.682800 16.113400
						CHANNELS 3 Xrotation Yrotation Zrotation
						End Site
						{
							OFFSET 0.000000 18.567114 0.000000
						}
					}
				}
			}
			JOINT Right_ShortSleeve
			{
				OFFSET -0.265923 -10.480953 1.153800
				CHANNELS 3 Xrotation Yrotation Zrotation
				End Site
				{
					OFFSET -1.725766 19.823910 0.000000
				}
			}
		}
	}
	JOINT Spine
	{
		OFFSET 0.000000 13.368103 0.470500
		CHANNELS 3 Xrotation Yrotation Zrotation
		JOINT Spine1
		{
			OFFSET 0.147000 13.837402 0.538800
			CHANNELS 3 Xrotation Yrotation Zrotation
			JOINT Spine2
			{
				OFFSET 0.168000 16.242897 -1.435500
				CHANNELS 3 Xrotation Yrotation Zrotation
				JOINT Neck
				{
					OFFSET 0.217200 18.631500 -1.679100
					CHANNELS 3 Xrotation Yrotation Zrotation
					JOINT Head
					{
						OFFSET 0.000000 6.599396 1.385900
						CHANNELS 3 Xrotation Yrotation Zrotation
						JOINT Hat
						{
							OFFSET -0.532200 27.220596 -10.096100
							CHANNELS 3 Xrotation Yrotation Zrotation
							End Site
							{
								OFFSET 0.000000 22.029861 0.000000
							}
						}
						JOINT HairD
						{
							OFFSET -10.777400 17.437393 -1.325900
							CHANNELS 3 Xrotation Yrotation Zrotation
							JOINT HairD1
							{
								OFFSET -3.290299 -11.051193 1.062200
								CHANNELS 3 Xrotation Yrotation Zrotation
								End Site
								{
									OFFSET 0.000000 11.579437 0.000000
								}
							}
						}
						JOINT HairB
						{
							OFFSET -10.777400 17.437393 1.467900
							CHANNELS 3 Xrotation Yrotation Zrotation
							JOINT HairB1
							{
								OFFSET -1.561200 -12.956299 3.590200
								CHANNELS 3 Xrotation Yrotation Zrotation
								End Site
								{
									OFFSET 0.000000 13.534866 0.000000
								}
							}
						}
						JOINT HairA
						{
							OFFSET 9.713100 17.437393 1.467900
							CHANNELS 3 Xrotation Yrotation Zrotation
							JOINT HairA1
							{
								OFFSET 1.561200 -12.956299 3.590200
								CHANNELS 3 Xrotation Yrotation Zrotation
								End Site
								{
									OFFSET 0.000000 13.534866 0.000000
								}
							}
						}
						JOINT HairC
						{
							OFFSET 9.713100 17.437393 -1.325900
							CHANNELS 3 Xrotation Yrotation Zrotation
							JOINT HairC1
							{
								OFFSET 3.290300 -11.051193 1.062200
								CHANNELS 3 Xrotation Yrotation Zrotation
								End Site
								{
									OFFSET 0.000000 11.579437 0.000000
								}
							}
						}
					}
				}
				JOINT LeftShoulder
				{
					OFFSET 5.101800 15.108002 -2.763700
					CHANNELS 3 Xrotation Yrotation Zrotation
					JOINT LeftArm
					{
						OFFSET 9.825497 2.506317 -1.597400
						CHANNELS 3 Xrotation Yrotation Zrotation
						JOINT LeftForeArm
						{
							OFFSET 21.966244 0.000000 0.000000
							CHANNELS 3 Xrotation Yrotation Zrotation
							JOINT LeftHand
							{
								OFFSET 33.879036 0.000000 0.000000
								CHANNELS 3 Xrotation Yrotation Zrotation
								JOINT LeftHandThumb1
								{
									OFFSET 6.715286 -2.359680 3.363841
									CHANNELS 3 Xrotation Yrotation Zrotation
									JOINT LeftHandThumb2
									{
										OFFSET 2.507072 -1.447464 1.447461
										CHANNELS 3 Xrotation Yrotation Zrotation
										JOINT LeftHandThumb3
										{
											OFFSET 2.898338 -1.673355 1.673357
											CHANNELS 3 Xrotation Yrotation Zrotation
											End Site
											{
												OFFSET -0.295959 3.727692 -0.131651
											}
										}
									}
								}
								JOINT LeftHandIndex1
								{
									OFFSET 14.190811 -0.254547 3.840278
									CHANNELS 3 Xrotation Yrotation Zrotation
									JOINT LeftHandIndex2
									{
										OFFSET 3.551727 0.000000 -0.000000
										CHANNELS 3 Xrotation Yrotation Zrotation
										JOINT LeftHandIndex3
										{
											OFFSET 2.894196 0.000000 0.000000
											CHANNELS 3 Xrotation Yrotation Zrotation
											End Site
											{
												OFFSET -1.000603 2.690872 0.366626
											}
										}
									}
								}
								JOINT LeftHandMiddle1
								{
									OFFSET 13.776489 0.000000 0.000000
									CHANNELS 3 Xrotation Yrotation Zrotation
									JOINT LeftHandMiddle2
									{
										OFFSET 3.438232 0.000000 0.000000
										CHANNELS 3 Xrotation Yrotation Zrotation
										JOINT LeftHandMiddle3
										{
											OFFSET 3.691551 0.000000 0.000000
											CHANNELS 3 Xrotation Yrotation Zrotation
											End Site
											{
												OFFSET -1.082298 3.499527 0.457670
											}
										}
									}
								}
								JOINT LeftHandRing1
								{
									OFFSET 13.966164 -0.268127 -3.067488
									CHANNELS 3 Xrotation Yrotation Zrotation
									JOINT LeftHandRing2
									{
										OFFSET 3.162567 0.000000 0.000000
										CHANNELS 3 Xrotation Yrotation Zrotation
										JOINT LeftHandRing3
										{
											OFFSET 3.324348 0.000000 0.000000
											CHANNELS 3 Xrotation Yrotation Zrotation
											End Site
											{
												OFFSET -0.861900 3.184998 0.405154
											}
										}
									}
								}
								JOINT LeftHandPinky1
								{
									OFFSET 13.131393 -0.168503 -5.746925
									CHANNELS 3 Xrotation Yrotation Zrotation
									JOINT LeftHandPinky2
									{
										OFFSET 2.849182 0.000000 0.000000
										CHANNELS 3 Xrotation Yrotation Zrotation
										JOINT LeftHandPinky3
										{
											OFFSET 2.805038 0.000000 0.000000
											CHANNELS 3 Xrotation Yrotation Zrotation
											End Site
											{
												OFFSET -0.882500 2.642609 0.325652
											}
										}
									}
								}
							}
							JOINT Left_Sleeve
							{
								OFFSET 6.592125 -0.646545 0.805568
								CHANNELS 3 Xrotation Yrotation Zrotation
								End Site
								{
									OFFSET -0.000179 20.275787 -0.000000
								}
							}
						}
					}
				}
				JOINT RightShoulder
				{
					OFFSET -5.731700 15.108002 -2.763700
					CHANNELS 3 Xrotation Yrotation Zrotation
					JOINT RightArm
					{
						OFFSET -9.825497 2.506317 -1.597400
						CHANNELS 3 Xrotation Yrotation Zrotation
						JOINT RightForeArm
						{
							OFFSET -21.966242 0.000000 0.000000
							CHANNELS 3 Xrotation Yrotation Zrotation
							JOINT RightHand
							{
								OFFSET -33.879032 0.000000 0.000000
								CHANNELS 3 Xrotation Yrotation Zrotation
								JOINT RightHandThumb1
								{
									OFFSET -6.715286 -2.359680 3.363841
									CHANNELS 3 Xrotation Yrotation Zrotation
									JOINT RightHandThumb2
									{
										OFFSET -2.507072 -1.447464 1.447461
										CHANNELS 3 Xrotation Yrotation Zrotation
										JOINT RightHandThumb3
										{
											OFFSET -2.898338 -1.673355 1.673357
											CHANNELS 3 Xrotation Yrotation Zrotation
											End Site
											{
												OFFSET 0.295959 3.727692 -0.131651
											}
										}
									}
								}
								JOINT RightHandIndex1
								{
									OFFSET -14.190811 -0.254547 3.840278
									CHANNELS 3 Xrotation Yrotation Zrotation
									JOINT RightHandIndex2
									{
										OFFSET -3.551727 0.000000 -0.000000
										CHANNELS 3 Xrotation Yrotation Zrotation
										JOINT RightHandIndex3
										{
											OFFSET -2.894196 0.000000 0.000000
											CHANNELS 3 Xrotation Yrotation Zrotation
											End Site
											{
												OFFSET 1.000603 2.690872 0.366626
											}
										}
									}
								}
								JOINT RightHandMiddle1
								{
									OFFSET -13.776489 0.000000 0.000000
									CHANNELS 3 Xrotation Yrotation Zrotation
									JOINT RightHandMiddle2
									{
										OFFSET -3.438232 0.000000 0.000000
										CHANNELS 3 Xrotation Yrotation Zrotation
										JOINT RightHandMiddle3
										{
											OFFSET -3.691551 0.000000 0.000000
											CHANNELS 3 Xrotation Yrotation Zrotation
											End Site
											{
												OFFSET 1.082298 3.499527 0.457670
											}
										}
									}
								}
								JOINT RightHandRing1
								{
									OFFSET -13.966164 -0.268127 -3.067488
									CHANNELS 3 Xrotation Yrotation Zrotation
									JOINT RightHandRing2
									{
										OFFSET -3.162567 0.000000 0.000000
										CHANNELS 3 Xrotation Yrotation Zrotation
										JOINT RightHandRing3
										{
											OFFSET -3.324348 0.000000 0.000000
											CHANNELS 3 Xrotation Yrotation Zrotation
											End Site
											{
												OFFSET 0.861900 3.184998 0.405154
											}
										}
									}
								}
								JOINT RightHandPinky1
								{
									OFFSET -13.131393 -0.168503 -5.746925
									CHANNELS 3 Xrotation Yrotation Zrotation
									JOINT RightHandPinky2
									{
										OFFSET -2.849182 0.000000 0.000000
										CHANNELS 3 Xrotation Yrotation Zrotation
										JOINT RightHandPinky3
										{
											OFFSET -2.805038 0.000000 0.000000
											CHANNELS 3 Xrotation Yrotation Zrotation
											End Site
											{
												OFFSET 0.882500 2.642609 0.325652
											}
										}
									}
								}
							}
							JOINT Right_Sleeve
							{
								OFFSET -6.592125 -0.646545 0.805568
								CHANNELS 3 Xrotation Yrotation Zrotation
								End Site
								{
									OFFSET 0.000179 20.275787 -0.000000
								}
							}
						}
					}
				}
				JOINT Bind_Right_JacketString
				{
					OFFSET -3.534800 11.969597 7.200700
					CHANNELS 3 Xrotation Yrotation Zrotation
					JOINT Bind_Right_JacketString1
					{
						OFFSET -0.319900 -6.102600 2.794100
						CHANNELS 3 Xrotation Yrotation Zrotation
						End Site
						{
							OFFSET 0.000000 6.719452 0.000000
						}
					}
				}
				JOINT Bind_Left_JacketString
				{
					OFFSET 2.904800 11.969597 7.200700
					CHANNELS 3 Xrotation Yrotation Zrotation
					JOINT Bind_Left_JacketString1
					{
						OFFSET 0.364800 -5.904503 3.186800
						CHANNELS 3 Xrotation Yrotation Zrotation
						End Site
						{
							OFFSET 0.000000 6.719513 0.000000
						}
					}
				}
				JOINT HairE
				{
					OFFSET 5.915200 17.612701 -11.592200
					CHANNELS 3 Xrotation Yrotation Zrotation
					JOINT HairE1
					{
						OFFSET 0.289200 -7.171898 -1.284500
						CHANNELS 3 Xrotation Yrotation Zrotation
						End Site
						{
							OFFSET 0.000000 7.291756 0.000000
						}
					}
				}
				JOINT HairF
				{
					OFFSET -0.864800 17.612701 -11.592200
					CHANNELS 3 Xrotation Yrotation Zrotation
					JOINT HairF1
					{
						OFFSET 0.000000 -14.087097 -2.127501
						CHANNELS 3 Xrotation Yrotation Zrotation
						End Site
						{
							OFFSET 0.000000 14.246841 0.000000
						}
					}
				}
				JOINT HairG
				{
					OFFSET -8.087700 17.612701 -11.592200
					CHANNELS 3 Xrotation Yrotation Zrotation
					JOINT HairG1
					{
						OFFSET -0.293600 -6.081398 -0.910100
						CHANNELS 3 Xrotation Yrotation Zrotation
						End Site
						{
							OFFSET 0.000000 6.156120 0.000000
						}
					}
				}
			}
		}
	}
	JOINT Pouch
	{
		OFFSET 0.000000 4.394501 10.847300
		CHANNELS 3 Xrotation Yrotation Zrotation
		End Site
		{
			OFFSET 0.000000 21.880577 0.000000
		}
	}
	JOINT Bag
	{
		OFFSET -13.229000 4.813004 -0.593300
		CHANNELS 3 Xrotation Yrotation Zrotation
		End Site
		{
			OFFSET 0.000000 21.880577 0.000000
		}
	}
	JOINT OccupyGuyFacialAnim_Joint
	{
		OFFSET 1.000000 -70.206398 -1.655000
		CHANNELS 3 Xrotation Yrotation Zrotation
		End Site
		{
			OFFSET 0.000000 21.880577 0.000000
		}
	}
}
MOTION
Frames: 4
Frame Time: 0.016667
0.669189 68.346985 1.192113 -2.789736 -1.024254 2.930726 0.000000 -0.000000 -0.000000 -5.113141 0.828506 -17.609479 22.114998 10.457269 4.577947 -18.175825 15.697716 7.736411 -0.000000 0.000002 -0.000000 -0.000001 0.000000 -0.000003 -23.647450 -4.177019 1.035645 27.497198 -10.089841 -3.419120 -2.845750 -16.269265 -2.115042 0.000000 -0.000002 -0.000000 -0.000000 0.000000 -0.000001 -3.685562 2.093842 2.335572 1.825085 0.204639 -3.563413 1.839736 0.222339 -3.555415 0.005325 -3.044289 -0.019017 5.669665 4.099743 0.112405 -0.000000 0.000000 0.000000 -0.000000 0.000000 0.000000 -0.000000 0.000000 0.000000 -0.000000 0.000000 0.000000 -0.000000 0.000000 0.000000 -0.000000 0.000000 0.000000 -0.000000 0.000000 0.000000 -0.000000 0.000000 0.000000 -0.000000 0.000000 0.000000 3.264881 -13.066456 -8.920288 12.299525 32.230799 -77.872264 0.000007 -37.449494 0.000009 11.318191 5.111735 -3.307912 -6.694201 7.651318 20.042534 11.568891 23.611300 -7.394392 -0.000001 0.000001 -0.000000 -0.982645 -2.594466 -15.812767 0.762402 3.154204 -27.170300 0.000002 0.000001 0.000002 -0.144672 0.710065 -18.764183 0.628388 2.878558 -24.623938 0.000001 -0.000001 0.000002 0.773678 3.364634 -19.548514 1.234023 3.938346 -34.783599 0.000000 0.000001 -0.000004 3.973835 12.688238 -18.446055 1.306900 -0.043997 -36.042703 -0.000001 -0.000001 0.000004 -0.000001 -0.000001 -0.000001 1.454488 14.110506 8.503204 54.678314 18.111652 70.211817 -0.000086 75.258747 0.000066 51.346364 35.160595 -70.815900 1.788490 4.679407 9.698149 4.637184 -8.634090 -0.225408 -0.000003 -0.000001 -0.000000 8.183369 12.621750 -38.427925 0.272874 -1.932493 16.073522 -0.000003 0.000001 0.000000 3.398853 7.945801 -28.641162 0.564764 -2.749678 23.209765 0.000002 0.000001 -0.000002 1.368555 4.899662 -20.505912 0.144620 -1.413630 11.682871 0.000000 0.000001 -0.000001 -3.372273 -9.628494 -18.358802 0.125283 -1.316614 10.870646 0.000002 0.000001 0.000001 0.000001 -0.000002 0.000001 -0.000000 0.000000 0.000000 -0.000000 -0.000000 0.000000 -0.000000 0.000000 -0.000000 -0.000000 0.000000 -0.000000 -0.000000 0.000000 0.000000 -0.000000 -0.000000 0.000000 -0.000000 0.000000 -0.000000 -0.000000 0.000000 -0.000000 -0.000000 0.000000 0.000000 -0.000000 -0.000000 0.000000 0.000000 -0.000000 -0.000000 0.000000 -0.000000 -0.000000 0.000000 -0.000000 -0.000000 
0.675745 68.343285 1.215288 -2.788391 -1.040417 2.955903 0.000000 0.000000 -0.000000 -5.083572 0.808012 -17.643017 22.094340 10.457452 4.571240 -18.193416 15.712983 7.747308 0.000000 -0.000002 0.000000 0.000001 -0.000000 -0.000001 -23.673933 -4.169133 1.015835 27.576622 -10.084268 -3.440529 -2.894134 -16.275950 -2.089202 -0.000000 0.000000 0.000000 0.000004 0.000001 -0.000001 -3.751965 2.113329 2.355837 1.845096 0.206903 -3.577331 1.859859 0.224642 -3.569078 0.009548 -3.046895 -0.006452 5.643797 4.101381 0.127782 0.000000 0.000000 0.000000 0.000000 0.000000 0.000000 0.000000 0.000000 0.000000 0.000000 0.000000 0.000000 0.000000 0.000000 0.000000 0.000000 0.000000 0.000000 0.000000 0.000000 0.000000 0.000000 0.000000 0.000000 0.000000 0.000000 0.000000 3.286008 -13.114652 -8.932847 12.556916 32.167783 -77.897044 0.000004 -37.526794 0.000016 11.076588 5.115574 -3.368708 -6.692594 7.656123 20.048861 11.568519 23.610378 -7.394141 0.000000 -0.000001 0.000001 -0.984541 -2.600910 -15.814567 0.762405 3.154218 -27.170424 0.000001 0.000000 0.000002 -0.143598 0.713504 -18.767070 0.628411 2.878617 -24.624468 0.000002 0.000002 0.000001 0.775398 3.369353 -19.550044 1.233924 3.938213 -34.782223 0.000000 0.000002 0.000000 3.968877 12.674949 -18.444753 1.307790 -0.042776 -36.055237 -0.000001 -0.000001 0.000001 -0.000001 0.000002 0.000000 1.454901 14.140047 8.517075 54.746609 17.804527 70.167981 -0.000048 75.583570 0.000061 51.021329 35.499485 -69.948022 1.808301 4.619851 9.771585 4.631463 -8.617651 -0.226266 0.000002 0.000002 0.000004 8.218645 12.665219 -38.428523 0.260938 -1.890569 15.715321 -0.000003 -0.000001 0.000002 3.524999 8.091269 -29.060505 0.542010 -2.695995 22.730417 -0.000003 0.000001 -0.000001 1.402232 4.961663 -20.710233 0.138321 -1.382716 11.423812 0.000000 -0.000002 0.000002 -3.444540 -9.677825 -18.618959 0.124963 -1.314974 10.856908 0.000001 -0.000003 0.000000 0.000002 0.000000 0.000001 -0.000000 0.000000 0.000000 -0.000000 0.000000 -0.000000 -0.000000 0.000000 0.000000 -0.000000 0.000000 0.000000 -0.000000 0.000000 0.000000 -0.000000 0.000000 0.000000 -0.000000 0.000000 0.000000 -0.000000 0.000000 0.000000 -0.000000 0.000000 0.000000 -0.000000 0.000000 0.000000 0.000000 0.000000 -0.000000 0.000000 0.000000 -0.000000 0.000000 0.000000 -0.000000 
0.682399 68.339470 1.240347 -2.789642 -1.058339 2.978244 -0.000000 0.000000 0.000000 -5.041268 0.787715 -17.675136 22.068625 10.457766 4.559820 -18.212966 15.691398 7.762297 -0.000000 -0.000000 0.000000 0.000000 0.000000 -0.000000 -23.696966 -4.160148 0.999636 27.659556 -10.085543 -3.469840 -2.945332 -16.305907 -2.054393 0.000000 0.000002 0.000000 0.000002 0.000000 -0.000000 -3.807593 2.130189 2.377951 1.862635 0.208559 -3.596378 1.877540 0.226432 -3.587913 0.016666 -3.049434 0.004050 5.628732 4.096245 0.149509 0.000000 -0.000000 0.000000 0.000000 -0.000000 0.000000 0.000000 -0.000000 0.000000 0.000000 -0.000000 0.000000 0.000000 -0.000000 0.000000 0.000000 -0.000000 0.000000 0.000000 -0.000000 0.000000 0.000000 -0.000000 0.000000 0.000000 -0.000000 0.000000 3.318910 -13.200824 -8.955617 12.731997 32.102914 -77.867517 0.000000 -37.603600 -0.000007 10.795356 5.116857 -3.465642 -6.694222 7.651537 20.054306 11.567920 23.609025 -7.393725 -0.000000 -0.000002 0.000000 -0.987179 -2.602653 -15.840563 0.762411 3.154222 -27.170503 0.000001 -0.000001 0.000005 -0.146222 0.707061 -18.782539 0.628362 2.878505 -24.623448 0.000001 -0.000001 -0.000001 0.775204 3.367800 -19.567966 1.233929 3.938215 -34.782226 0.000001 0.000000 0.000001 3.962191 12.657800 -18.441586 1.308456 -0.041856 -36.064638 -0.000001 0.000000 0.000003 -0.000000 -0.000001 -0.000001 1.454903 14.165860 8.533178 54.818723 17.557858 70.062373 -0.000032 75.912184 0.000039 50.633801 35.802957 -69.087165 1.823098 4.569995 9.855958 4.626458 -8.603850 -0.227168 -0.000003 -0.000002 0.000000 8.248185 12.701451 -38.429714 0.251171 -1.855539 15.416440 -0.000002 0.000002 0.000002 3.638039 8.218625 -29.430670 0.523449 -2.651337 22.332774 -0.000002 -0.000000 -0.000001 1.433991 5.019215 -20.901701 0.132901 -1.355684 11.197501 -0.000002 -0.000001 -0.000003 -3.501109 -9.709309 -18.829757 0.124333 -1.311666 10.829404 0.000005 -0.000002 0.000000 0.000000 -0.000003 0.000000 -0.000000 -0.000000 -0.000000 -0.000000 0.000000 -0.000000 -0.000000 -0.000000 -0.000000 -0.000000 -0.000000 -0.000000 -0.000000 -0.000000 -0.000000 -0.000000 0.000000 -0.000000 -0.000000 -0.000000 -0.000000 -0.000000 -0.000000 -0.000000 -0.000000 -0.000000 -0.000000 -0.000000 0.000000 -0.000000 -0.000000 0.000000 0.000000 -0.000000 0.000000 0.000000 -0.000000 0.000000 0.000000 
0.689143 68.335564 1.267024 -2.793459 -1.077627 2.997150 -0.000000 -0.000000 -0.000000 -4.992277 0.757075 -17.712485 22.035485 10.458442 4.552591 -18.232994 15.677900 7.781208 0.000000 -0.000002 -0.000000 -0.000001 0.000000 -0.000000 -23.716085 -4.155564 0.984488 27.745366 -10.082682 -3.502373 -2.999496 -16.350295 -2.015249 -0.000000 0.000000 -0.000000 0.000002 -0.000000 0.000000 -3.851802 2.143697 2.403892 1.877778 0.209558 -3.619555 1.892844 0.227625 -3.610928 0.026440 -3.051733 0.011326 5.624674 4.084377 0.175621 -0.000000 0.000000 -0.000000 -0.000000 0.000000 -0.000000 -0.000000 0.000000 -0.000000 -0.000000 0.000000 -0.000000 -0.000000 0.000000 0.000000 -0.000000 0.000000 -0.000000 -0.000000 0.000000 0.000000 -0.000000 0.000000 -0.000000 -0.000000 0.000000 -0.000000 3.362987 -13.321778 -8.988035 12.831986 32.035752 -77.788540 -0.000014 -37.677294 -0.000027 10.468727 5.116998 -3.597202 -6.697714 7.641050 20.056181 11.567880 23.608906 -7.393671 0.000001 -0.000001 0.000000 -0.989581 -2.601593 -15.873035 0.762410 3.154223 -27.170475 0.000002 -0.000001 -0.000000 -0.151401 0.693349 -18.801824 0.628221 2.878207 -24.620699 0.000001 -0.000001 0.000002 0.773651 3.361973 -19.594004 1.233934 3.938223 -34.782376 -0.000001 0.000000 0.000003 3.956802 12.642907 -18.440908 1.308765 -0.041432 -36.069017 -0.000001 0.000000 0.000003 0.000001 -0.000001 -0.000001 1.454658 14.189413 8.551600 54.897335 17.361581 69.904158 0.000053 76.243120 -0.000060 50.198769 36.073190 -68.237661 1.834432 4.526485 9.947614 4.621977 -8.591957 -0.228041 0.000002 0.000000 -0.000000 8.273466 12.732382 -38.431022 0.242925 -1.825328 15.159147 0.000002 0.000000 0.000004 3.741515 8.332702 -29.765814 0.507821 -2.612990 21.992202 -0.000000 -0.000002 -0.000001 1.464250 5.073207 -21.083633 0.128147 -1.331423 10.994422 0.000003 -0.000003 0.000000 -3.546694 -9.728996 -19.006028 0.123503 -1.307310 10.792841 -0.000001 -0.000000 0.000002 0.000001 -0.000003 -0.000001 -0.000000 0.000000 -0.000000 -0.000000 0.000000 -0.000000 -0.000000 0.000000 -0.000000 -0.000000 0.000000 -0.000000 -0.000000 0.000000 -0.000000 -0.000000 0.000000 -0.000000 -0.000000 0.000000 -0.000000 -0.000000 0.000000 -0.000000 -0.000000 0.000000 -0.000000 -0.000000 0.000000 -0.000000 -0.000000 -0.000000 -0.000000 -0.000000 -0.000000 -0.000000 -0.000000 -0.000000 -0.000000 
